<?xml version="1.0"?>
<svg xmlns="http://www.w3.org/2000/svg" viewBox="0 0 50 50">
    <path style="line-height:normal;text-indent:0;text-align:start;text-decoration-line:none;text-decoration-style:solid;text-decoration-color:#000;text-transform:none;block-progression:tb;isolation:auto;mix-blend-mode:normal" d="M 7 2 L 7 48 L 31 48 L 33 48 L 33.414062 48 L 43 38.414062 L 43 38 L 43 36 L 43 2 L 7 2 z M 15 13 L 18 13 L 18 15 L 15 15 L 15 13 z M 21 13 L 35 13 L 35 15 L 21 15 L 21 13 z M 15 19 L 18 19 L 18 21 L 15 21 L 15 19 z M 21 19 L 35 19 L 35 21 L 21 21 L 21 19 z M 15 25 L 18 25 L 18 27 L 15 27 L 15 25 z M 21 25 L 35 25 L 35 27 L 21 27 L 21 25 z M 15 31 L 18 31 L 18 33 L 15 33 L 15 31 z M 21 31 L 35 31 L 35 33 L 21 33 L 21 31 z M 33 38 L 40.585938 38 L 33 45.585938 L 33 38 z" font-weight="400" font-family="sans-serif" white-space="normal" overflow="visible"/>
</svg>
