<?xml version="1.0"?>
<svg xmlns="http://www.w3.org/2000/svg" viewBox="0 0 50 50" enable-background="new 0 0 50 50">
    <path style="text-indent:0;text-align:start;line-height:normal;text-transform:none;block-progression:tb;-inkscape-font-specification:Bitstream Vera Sans" d="M 39.875 1 A 1.0001 1.0001 0 0 0 39.1875 1.4375 C 38.024341 3.0834804 36.272603 4.0885078 34.03125 4.875 C 31.789897 5.6614922 29.102196 6.1852957 26.25 6.90625 C 20.545607 8.3481586 14.135118 10.635879 9.65625 17.5625 C 5.6483183 23.732605 7.1989825 29.438968 10.34375 33.25 C 11.916134 35.155516 13.850064 36.637456 15.71875 37.625 C 16.704257 38.145811 17.616445 38.483771 18.5 38.6875 C 16.52923 40.361035 14.55102 41.766521 12.625 42.75 C 9.6753628 44.256166 6.9095387 44.783048 4.5625 44.125 A 1.0045064 1.0045064 0 1 0 4.03125 46.0625 C 7.0342113 46.904452 10.305887 46.178209 13.53125 44.53125 C 15.779963 43.382995 18.029565 41.785397 20.21875 39.875 C 20.591481 41.011807 21.17807 42.187556 22.25 43.25 C 23.857861 44.843632 26.39375 46 30.09375 46 C 39.040164 46 53.880514 32.566893 40.9375 1.625 A 1.0001 1.0001 0 0 0 39.875 1 z M 39.53125 3.78125 C 51.083763 32.913597 36.832703 44 30.09375 44 C 26.79375 44 24.873389 43.050118 23.65625 41.84375 C 22.610395 40.80715 22.086113 39.524136 21.8125 38.375 C 22.217988 37.989047 22.631209 37.622958 23.03125 37.21875 C 29.136427 31.049977 34.501586 22.881043 37.21875 16.0625 A 1.0001 1.0001 0 0 0 36.15625 14.6875 A 1.0001 1.0001 0 0 0 35.375 15.34375 C 32.792164 21.825207 27.519823 29.856273 21.625 35.8125 C 21.214502 36.227274 20.790698 36.606729 20.375 37 C 19.591824 37.013318 18.169576 36.674747 16.65625 35.875 C 15.012436 35.006294 13.252616 33.669484 11.875 32 C 9.1197675 28.661032 7.7516817 24.186145 11.34375 18.65625 C 15.464882 12.282871 21.148143 10.251841 26.71875 8.84375 C 29.504054 8.1397043 32.244478 7.6072578 34.6875 6.75 C 36.548833 6.096857 38.162301 5.0845772 39.53125 3.78125 z" overflow="visible" enable-background="accumulate" font-family="Bitstream Vera Sans"/>
</svg>
