<?xml version="1.0"?>
<svg xmlns="http://www.w3.org/2000/svg" viewBox="0 0 64 64">
    <path d="M 31.1875 2 C 30.3615 2 29.630125 2.497625 29.328125 3.265625 L 7.1445312 59.376953 C 6.8405312 60.144953 7.0327656 61.005312 7.6347656 61.570312 C 8.0157656 61.927312 8.504 62.113281 9 62.113281 C 9.288 62.113281 9.5795156 62.050875 9.8535156 61.921875 L 31.185547 51.882812 L 39.283203 55.693359 C 39.439203 55.854359 39.650766 55.948563 39.884766 55.976562 L 52.517578 61.921875 C 53.265578 62.272875 54.136281 62.133359 54.738281 61.568359 C 55.341281 61.004359 55.534469 60.144953 55.230469 59.376953 L 33.046875 3.265625 C 32.743875 2.497625 32.0135 2 31.1875 2 z M 31.1875 4 L 39.097656 24 L 39 24 C 38.447 24 38 24.448 38 25 C 38 25.552 38.447 26 39 26 L 39.886719 26 L 41.080078 29.015625 C 41.052078 29.012625 41.028 29 41 29 L 39 29 C 38.447 29 38 29.448 38 30 C 38 30.552 38.447 31 39 31 L 41 31 C 41.293 31 41.551375 30.868969 41.734375 30.667969 L 53.380859 60.115234 C 53.380859 60.115234 53.375141 60.114328 53.369141 60.111328 L 41.947266 54.736328 C 41.829266 54.315328 41.459 54 41 54 L 40.380859 54 L 32.037109 50.074219 C 32.025109 50.068219 32.012 50.065547 32 50.060547 L 32 20.070312 C 32 19.518313 31.553 19.070312 31 19.070312 C 30.447 19.070312 30 19.518313 30 20.070312 L 30 50.230469 L 9.0039062 60.111328 L 31.1875 4 z M 31 12 C 30.447 12 30 12.448 30 13 L 30 16.535156 C 30 17.087156 30.447 17.535156 31 17.535156 C 31.553 17.535156 32 17.087156 32 16.535156 L 32 13 C 32 12.448 31.553 12 31 12 z M 39 34 C 38.447 34 38 34.448 38 35 C 38 35.552 38.447 36 39 36 L 41 36 C 41.553 36 42 35.552 42 35 C 42 34.448 41.553 34 41 34 L 39 34 z M 39 39 C 38.447 39 38 39.448 38 40 C 38 40.552 38.447 41 39 41 L 41 41 C 41.553 41 42 40.552 42 40 C 42 39.448 41.553 39 41 39 L 39 39 z M 39 44 C 38.447 44 38 44.448 38 45 C 38 45.552 38.447 46 39 46 L 41 46 C 41.553 46 42 45.552 42 45 C 42 44.448 41.553 44 41 44 L 39 44 z M 39 49 C 38.447 49 38 49.448 38 50 C 38 50.552 38.447 51 39 51 L 41 51 C 41.553 51 42 50.552 42 50 C 42 49.448 41.553 49 41 49 L 39 49 z"/>
</svg>
