<?xml version="1.0"?>
<svg xmlns="http://www.w3.org/2000/svg" viewBox="0 0 50 50">
    <path style="line-height:normal;text-indent:0;text-align:start;text-decoration-line:none;text-decoration-style:solid;text-decoration-color:#000;text-transform:none;block-progression:tb;isolation:auto;mix-blend-mode:normal" d="M 0.99023438 -0.009765625 A 1.0001 1.0001 0 0 0 0.29296875 1.7070312 L 48.292969 49.707031 A 1.0001 1.0001 0 1 0 49.707031 48.292969 L 32.398438 30.984375 C 32.78663 30.613829 33.102397 30.220895 33.318359 29.824219 C 33.487359 29.513219 33.480828 29.136031 33.298828 28.832031 C 33.254485 28.758023 33.067145 28.480236 32.822266 28.146484 C 33.750005 28.016083 34.645853 27.728024 35.445312 27.326172 C 36.738464 26.676164 37.80795 25.816794 38.382812 24.761719 A 1.0001 1.0001 0 0 0 38.361328 23.769531 C 38.361328 23.769531 38.153659 23.456347 37.873047 23.074219 C 38.810364 22.945472 39.716358 22.653816 40.523438 22.248047 C 41.816527 21.597929 42.884121 20.738669 43.458984 19.683594 A 1.0001 1.0001 0 0 0 43.439453 18.693359 C 43.439453 18.693359 43.106266 18.137604 42.591797 17.521484 C 43.990995 17.162647 45.236355 16.345787 46.210938 15.386719 C 47.240091 14.373948 47.999789 13.233255 48.1875 12.019531 A 1.0001 1.0001 0 0 0 47.84375 11.101562 C 47.84375 11.101562 47.188979 10.500033 46.181641 10.001953 C 46.338182 9.8699771 46.494338 9.7341781 46.646484 9.5820312 C 47.952359 8.277334 48.45277 6.3915981 48.726562 4.8378906 C 49.000355 3.2841832 49 2 49 2 A 1.0001 1.0001 0 0 0 48 1 C 48 1 46.714112 0.99798396 45.160156 1.2714844 C 43.606201 1.5449848 41.722102 2.0454241 40.416016 3.3496094 A 1.0001 1.0001 0 0 0 40.416016 3.3515625 C 40.264216 3.5034211 40.128016 3.6585824 39.996094 3.8144531 C 39.497923 2.8099294 38.898437 2.15625 38.898438 2.15625 A 1.0001 1.0001 0 0 0 38.105469 1.8007812 A 1.0001 1.0001 0 0 0 37.980469 1.8125 C 36.766745 2.0002112 35.626052 2.7599089 34.613281 3.7890625 C 33.654149 4.7637094 32.83713 6.0088917 32.478516 7.4082031 C 31.862396 6.8937344 31.306641 6.5605469 31.306641 6.5605469 A 1.0001 1.0001 0 0 0 30.832031 6.4179688 A 1.0001 1.0001 0 0 0 30.314453 6.5390625 C 29.259412 7.1142235 28.40017 8.183509 27.75 9.4765625 C 27.344494 10.28303 27.054153 11.188416 26.925781 12.125 C 26.543025 11.843845 26.228516 11.636719 26.228516 11.636719 A 1.0001 1.0001 0 0 0 25.654297 11.496094 A 1.0001 1.0001 0 0 0 25.236328 11.617188 C 24.181818 12.192437 23.321883 13.261677 22.671875 14.554688 C 22.26987 15.354364 21.981953 16.250162 21.851562 17.177734 C 21.51795 16.932871 21.240003 16.745502 21.166016 16.701172 C 20.862016 16.519172 20.484828 16.512641 20.173828 16.681641 C 19.777157 16.8976 19.385918 17.213129 19.015625 17.601562 L 1.7070312 0.29296875 A 1.0001 1.0001 0 0 0 0.99023438 -0.009765625 z M 46.892578 3.1074219 C 46.865808 3.5657025 46.891839 3.7316176 46.757812 4.4921875 C 46.516605 5.8609801 45.9865 7.4126692 45.232422 8.1660156 C 44.149982 9.2484559 43.019028 9.5601518 42.085938 9.59375 C 41.619391 9.610549 41.205645 9.5496632 40.914062 9.4726562 C 40.796532 9.4416164 40.709164 9.3920601 40.636719 9.3535156 C 40.598174 9.281472 40.549383 9.1959331 40.517578 9.0800781 C 40.438528 8.7919828 40.376004 8.3837666 40.390625 7.921875 C 40.419865 6.9980918 40.725763 5.8703693 41.830078 4.765625 C 42.584992 4.0118103 44.138518 3.4831871 45.507812 3.2421875 C 46.268662 3.108276 46.434221 3.1341676 46.892578 3.1074219 z M 37.791016 4.0996094 C 38.155829 4.6697691 38.606142 5.4648746 38.646484 6.2304688 A 1.0004144 1.0004144 0 0 0 38.650391 6.2714844 C 38.485805 6.8272449 38.406233 7.3663088 38.390625 7.859375 C 38.376085 8.3186812 38.42398 8.7217105 38.490234 9.0957031 A 1.0006073 1.0006073 0 0 0 38.431641 9.2304688 C 38.056998 10.320954 37.572381 11.064491 37.080078 11.494141 C 36.618202 11.897236 36.156925 12.021774 35.599609 12.003906 C 35.560709 11.974376 35.533859 11.957743 35.480469 11.908203 C 35.292051 11.733359 35.046964 11.446145 34.833984 11.080078 C 34.408025 10.347945 34.097937 9.3334284 34.373047 8.0644531 C 34.588157 7.0680683 35.243584 6.0017057 36.039062 5.1933594 C 36.658895 4.563502 37.270252 4.3057057 37.791016 4.0996094 z M 30.908203 8.7324219 C 31.044405 8.8318249 31.050542 8.8185999 31.212891 8.9550781 C 31.709017 9.3721475 32.206334 9.9570949 32.333984 10.322266 A 1.000361 1.000361 0 0 0 32.492188 10.611328 C 32.643596 11.165738 32.859732 11.663565 33.105469 12.085938 C 33.140923 12.146876 33.18037 12.191918 33.216797 12.25 A 1.0001 1.0001 0 0 0 33.294922 12.564453 C 33.519889 13.099584 33.411747 14.215029 32.941406 15.175781 C 32.489271 16.099345 31.746545 16.750435 31.302734 16.880859 C 31.165674 16.879159 30.621744 16.772547 30.109375 16.285156 C 29.575867 15.777661 29.05526 14.934427 28.875 13.578125 A 1.0001 1.0001 0 0 0 28.875 13.576172 C 28.742849 12.585236 29.027279 11.388947 29.537109 10.375 C 29.939926 9.5738807 30.46247 9.1051027 30.908203 8.7324219 z M 43.669922 11.349609 A 1.0001 1.0001 0 0 0 43.769531 11.355469 C 44.536336 11.395879 45.332528 11.8461 45.902344 12.210938 C 45.696393 12.731763 45.436814 13.342749 44.806641 13.962891 C 43.998294 14.758369 42.931932 15.413796 41.935547 15.628906 C 40.667046 15.90359 39.65413 15.591946 38.921875 15.166016 C 38.555748 14.953051 38.266834 14.708007 38.091797 14.519531 C 38.042587 14.466551 38.027577 14.439181 37.998047 14.400391 C 37.981077 13.844177 38.105247 13.383059 38.507812 12.921875 C 38.937568 12.429542 39.67934 11.943508 40.769531 11.568359 A 1.0001 1.0001 0 0 0 40.925781 11.503906 C 41.299204 11.565953 41.701546 11.60824 42.158203 11.591797 C 42.629157 11.57484 43.142016 11.498699 43.669922 11.349609 z M 25.828125 13.810547 C 25.964128 13.909827 25.970799 13.895047 26.132812 14.03125 C 26.62894 14.448319 27.128209 15.033267 27.255859 15.398438 A 1.0001 1.0001 0 0 0 27.380859 15.644531 C 27.569174 16.114088 27.784972 16.543927 28.041016 16.910156 A 1.0001 1.0001 0 0 0 28.09375 17.121094 C 28.421053 18.023657 28.282416 19.243728 27.828125 20.242188 C 27.39099 21.202939 26.672824 21.829776 26.222656 21.958984 C 26.084607 21.956884 25.544887 21.848068 25.033203 21.361328 C 24.673536 21.019195 24.32827 20.506327 24.080078 19.804688 C 24.078177 19.799242 24.074199 19.7945 24.072266 19.789062 C 23.955115 19.453988 23.854636 19.088897 23.796875 18.654297 C 23.664724 17.663361 23.949243 16.467114 24.458984 15.453125 C 24.861459 14.652513 25.3828 14.18337 25.828125 13.810547 z M 36.935547 16.599609 C 37.130213 16.613759 37.299797 16.64883 37.433594 16.705078 A 1.0001 1.0001 0 0 0 37.751953 16.783203 C 37.810029 16.819583 37.855084 16.859089 37.916016 16.894531 C 38.338906 17.140514 38.837558 17.358033 39.392578 17.509766 A 1.0003611 1.0003611 0 0 0 39.677734 17.666016 C 40.042904 17.793666 40.627853 18.290983 41.044922 18.787109 C 41.181536 18.94962 41.168116 18.955498 41.267578 19.091797 C 40.895354 19.537123 40.426658 20.059847 39.625 20.462891 C 38.610841 20.972772 37.412901 21.256771 36.421875 21.125 C 35.065742 20.945198 34.222324 20.424207 33.714844 19.890625 C 33.228097 19.378842 33.119242 18.837234 33.117188 18.699219 C 33.246558 18.255234 33.899465 17.511361 34.824219 17.058594 C 35.544699 16.70584 36.351549 16.557161 36.935547 16.599609 z M 20.667969 18.775391 C 21.256969 19.213391 21.989359 19.879891 22.193359 20.462891 C 22.199231 20.479698 22.212075 20.491521 22.21875 20.507812 C 22.279309 20.674827 22.340082 20.841307 22.410156 20.996094 L 20.443359 19.029297 C 20.518841 18.949063 20.592498 18.843314 20.667969 18.775391 z M 17.087891 20.921875 C 16.94848 21.359397 16.848263 21.80718 16.783203 22.257812 C 16.403283 21.979108 16.091797 21.773437 16.091797 21.773438 A 1.0001 1.0001 0 0 0 15.617188 21.632812 A 1.0001 1.0001 0 0 0 15.099609 21.753906 C 14.045099 22.329157 13.185165 23.398396 12.535156 24.691406 C 12.130583 25.496193 11.839834 26.398076 11.710938 27.332031 C 11.330692 27.053542 11.019531 26.847656 11.019531 26.847656 A 1.0001 1.0001 0 0 0 10.546875 26.705078 A 1.0001 1.0001 0 0 0 10.447266 26.705078 A 1.0001 1.0001 0 0 0 10.027344 26.826172 C 8.9728334 27.401422 8.114852 28.470661 7.4648438 29.763672 C 6.8148355 31.056683 6.4025728 32.592842 6.6074219 34.128906 C 6.841458 35.886557 7.5689137 37.18781 8.4453125 38.021484 C 8.8479137 38.404459 9.2707479 38.68648 9.7011719 38.884766 L 1.2929688 47.292969 C 0.90196875 47.683969 0.90196875 48.316031 1.2929688 48.707031 C 1.4879688 48.902031 1.744 49 2 49 C 2.256 49 2.5120313 48.902031 2.7070312 48.707031 L 11.115234 40.298828 C 11.313957 40.728753 11.597895 41.150483 11.980469 41.552734 C 12.814489 42.429652 14.11418 43.15938 15.873047 43.392578 C 17.409128 43.59743 18.94513 43.185165 20.238281 42.535156 C 21.531432 41.885148 22.598965 41.025779 23.173828 39.970703 A 1.0001 1.0001 0 0 0 23.154297 38.978516 C 23.154297 38.978516 22.949168 38.665705 22.669922 38.285156 C 23.602949 38.155913 24.504896 37.866873 25.308594 37.462891 C 26.601745 36.812882 27.669278 35.955466 28.244141 34.900391 A 1.0001 1.0001 0 0 0 28.224609 33.908203 C 28.224609 33.908203 28.020402 33.599741 27.744141 33.222656 C 28.193707 33.156991 28.640647 33.053206 29.078125 32.914062 L 27.410156 31.244141 C 27.030156 31.293141 26.64825 31.312672 26.28125 31.263672 C 23.70625 30.922672 22.963219 29.346844 22.949219 28.839844 C 23.051219 28.469844 23.392953 28.063938 23.876953 27.710938 L 22.287109 26.123047 C 21.934109 26.607047 21.530156 26.945828 21.160156 27.048828 C 20.653156 27.034828 19.075375 26.292797 18.734375 23.716797 C 18.685375 23.349797 18.703906 22.968891 18.753906 22.587891 L 17.087891 20.921875 z M 31.351562 21.744141 C 31.894218 21.693605 32.425651 21.740638 32.876953 21.904297 A 1.0001 1.0001 0 0 0 33.083984 21.957031 C 33.452302 22.215299 33.886172 22.433621 34.359375 22.623047 A 1.0001 1.0001 0 0 0 34.599609 22.742188 C 34.964779 22.869837 35.549728 23.369108 35.966797 23.865234 C 36.102859 24.027088 36.088276 24.034016 36.1875 24.169922 C 35.814981 24.614963 35.347455 25.136647 34.546875 25.539062 C 33.532776 26.048804 32.336622 26.33332 31.345703 26.201172 A 1.0001 1.0001 0 0 0 31.34375 26.201172 C 30.917203 26.144618 30.557154 26.047435 30.226562 25.933594 C 30.21571 25.929669 30.206197 25.921766 30.195312 25.917969 C 30.190841 25.9164 30.186119 25.917517 30.181641 25.916016 C 29.486072 25.668588 28.976926 25.324439 28.636719 24.966797 C 28.149087 24.454174 28.040547 23.910847 28.039062 23.773438 C 28.16938 23.322755 28.796045 22.606676 29.755859 22.169922 C 30.255031 21.942779 30.808908 21.794676 31.351562 21.744141 z M 15.691406 23.947266 C 15.827409 24.046546 15.834078 24.031766 15.996094 24.167969 C 16.492221 24.585038 16.989536 25.169986 17.117188 25.535156 A 1.0001 1.0001 0 0 0 17.160156 25.640625 C 17.362383 26.189272 17.616647 26.668469 17.90625 27.078125 A 1.0001 1.0001 0 0 0 17.955078 27.259766 C 18.282381 28.162328 18.145698 29.380447 17.691406 30.378906 C 17.254289 31.339618 16.536109 31.966456 16.085938 32.095703 C 15.947926 32.093703 15.406243 31.984813 14.894531 31.498047 C 14.361023 30.990547 13.840416 30.147317 13.660156 28.791016 C 13.528005 27.80008 13.812524 26.603833 14.322266 25.589844 C 14.72474 24.789232 15.246082 24.320088 15.691406 23.947266 z M 29.005859 27.591797 C 29.164775 27.663473 29.336052 27.72546 29.507812 27.787109 C 29.51871 27.791345 29.525986 27.800801 29.537109 27.804688 C 30.107109 28.003688 30.767609 28.714078 31.224609 29.330078 C 31.156426 29.405837 31.051294 29.480821 30.970703 29.556641 L 29.005859 27.591797 z M 10.621094 29.019531 C 10.757296 29.118931 10.763433 29.105711 10.925781 29.242188 C 11.421908 29.659257 11.919225 30.244205 12.046875 30.609375 A 1.0001 1.0001 0 0 0 12.154297 30.830078 C 12.346995 31.316716 12.568965 31.762135 12.833984 32.138672 A 1.0001 1.0001 0 0 0 12.884766 32.330078 C 13.212183 33.233324 13.075385 34.452713 12.621094 35.451172 C 12.184306 36.411161 11.466298 37.039668 11.015625 37.169922 C 10.879014 37.168322 10.336897 37.059951 9.8242188 36.572266 C 9.2907106 36.064766 8.7701033 35.219583 8.5898438 33.863281 C 8.4576927 32.872346 8.7422114 31.676099 9.2519531 30.662109 C 9.6544278 29.861498 10.175769 29.392354 10.621094 29.019531 z M 21.214844 31.880859 C 21.757499 31.830813 22.288933 31.87931 22.740234 32.042969 A 1.0001 1.0001 0 0 0 22.923828 32.091797 C 23.333411 32.382973 23.81494 32.636882 24.365234 32.839844 A 1.0001 1.0001 0 0 0 24.462891 32.880859 C 24.828061 33.00851 25.413009 33.505826 25.830078 34.001953 C 25.966557 34.164302 25.953331 34.170439 26.052734 34.306641 C 25.680517 34.751956 25.211767 35.274801 24.410156 35.677734 C 23.396057 36.187476 22.199903 36.470039 21.208984 36.337891 A 1.0001 1.0001 0 0 0 21.207031 36.337891 C 19.850945 36.158089 19.00748 35.637098 18.5 35.103516 C 18.012333 34.590766 17.903903 34.048725 17.902344 33.912109 C 18.0326 33.461435 18.659263 32.743424 19.619141 32.306641 C 20.118312 32.079497 20.672189 31.930906 21.214844 31.880859 z M 16.144531 36.953125 C 16.687092 36.902578 17.218299 36.949573 17.669922 37.113281 A 1.0001 1.0001 0 0 0 17.853516 37.162109 C 18.236446 37.432208 18.690459 37.660478 19.1875 37.855469 A 1.0001 1.0001 0 0 0 19.392578 37.951172 C 19.757748 38.078822 20.342696 38.578092 20.759766 39.074219 C 20.895964 39.236234 20.881186 39.242903 20.980469 39.378906 C 20.60795 39.823947 20.140424 40.345632 19.339844 40.748047 C 18.325745 41.257789 17.127637 41.542305 16.136719 41.410156 C 14.780586 41.230354 13.937168 40.709363 13.429688 40.175781 C 12.942939 39.663998 12.834086 39.12239 12.832031 38.984375 C 12.961554 38.533787 13.588076 37.816042 14.548828 37.378906 C 15.048058 37.151761 15.601971 37.003672 16.144531 36.953125 z"/>
</svg>
