<?xml version="1.0"?>
<svg xmlns="http://www.w3.org/2000/svg" width="50" height="50" viewBox="0 0 50 50">
    <path style="text-indent:0;text-align:start;line-height:normal;text-transform:none;block-progression:tb;-inkscape-font-specification:Bitstream Vera Sans" d="M 0.90625 -0.03125 A 1.0001 1.0001 0 0 0 0.78125 0 A 1.0001 1.0001 0 0 0 0.28125 1.71875 L 48.28125 49.71875 A 1.016466 1.016466 0 1 0 49.71875 48.28125 L 39.3125 37.875 C 40.2634 36.995729 41.225681 36.09563 42.15625 35.0625 C 38.79025 33.8615 34.37925 30.50425 28.78125 24.90625 C 23.07825 19.20325 19.7015 14.73675 18.5625 11.34375 C 17.570015 12.236563 16.633892 13.237646 15.6875 14.25 L 1.71875 0.28125 A 1.0001 1.0001 0 0 0 0.90625 -0.03125 z M 45.625 1 C 45.487695 1.0177734 45.3375 1.04375 45.1875 1.09375 C 44.2875 1.39375 43.5 2.7125 44.5 3.8125 C 45.234667 4.639 47.285473 8.3911083 43.59375 11.09375 C 43.338739 10.83354 43.158173 10.655433 43.125 10.625 C 42.852 10.339 36.3825 3.625 29.0625 3.625 C 25.9165 3.625 23.08675 4.854 20.71875 7.25 C 20.58375 7.371 20.153 7.83675 20.125 8.84375 C 20.043 11.76275 23.5205 16.833 30.1875 23.5 C 36.7735 30.086 41.816 33.5615 44.75 33.5625 C 45.827 33.5625 46.3345 33.116 46.4375 33 C 48.9295 30.398 50.12825 27.413 50.03125 24.125 C 49.87075 18.71 46.20575 13.917016 44.28125 11.78125 C 49.097956 8.6712266 47.9625 3.20375 47.5 2.09375 C 47.2375 1.48125 46.586133 0.87558594 45.625 1 z M 13.1875 17.1875 C 8.7875 23.0875 6.30625 30.6875 9.90625 39.6875 L 9.90625 39.8125 C 9.80625 39.9125 9.69375 40.20625 9.59375 40.40625 C 9.09375 41.20625 8.1125 42.80525 9.3125 44.40625 C 10.5125 46.10525 12.3125 45.4 13.3125 45 C 13.7125 44.8 14.3 44.5875 14.5 44.6875 C 16.9 45.3875 19.2 45.8125 21.5 45.8125 C 26.7 45.8125 31.6125 44 36.3125 40.5 L 13.1875 17.1875 z" overflow="visible" enable-background="accumulate" font-family="Bitstream Vera Sans"/>
</svg>
