<?xml version="1.0"?>
<svg xmlns="http://www.w3.org/2000/svg" width="50" height="50" viewBox="0 0 50 50">
    <path d="M 1 0 C 0.74425 0 0.47675 0.08575 0.28125 0.28125 C -0.10975 0.67225 -0.10975 1.32775 0.28125 1.71875 L 48.28125 49.71875 C 48.47625 49.91375 48.744 50 49 50 C 49.256 50 49.52375 49.91375 49.71875 49.71875 C 50.10975 49.32775 50.10975 48.67225 49.71875 48.28125 L 46.03125 44.625 L 49.40625 42.90625 C 49.70625 42.70625 50 42.4 50 42 L 50 28 L 50 27.6875 C 49.9 27.5875 49.90625 27.5 49.90625 27.5 C 49.90625 27.5 49.9135 27.40625 49.8125 27.40625 L 49.6875 27.3125 C 49.6875 27.3125 49.59375 27.2875 49.59375 27.1875 C 49.59375 27.1875 49.5 27.19475 49.5 27.09375 L 38 21.40625 L 38 8 C 38 7.763 37.895 7.551 37.75 7.375 C 37.675 7.271 37.604 7.16275 37.5 7.09375 C 37.405 7.03075 37.2965 6.99275 37.1875 6.96875 L 25.4375 1.09375 C 25.1565 0.95275 24.8445 0.95275 24.5625 1.09375 L 12.75 7 C 12.632 7.022 12.50825 7.05975 12.40625 7.09375 C 12.10625 7.19375 12 7.7 12 8 L 12 10.59375 L 1.71875 0.28125 C 1.52325 0.08575 1.25575 0 1 0 z M 25 3.125 L 34.75 8 L 29.1875 10.78125 L 25 12.875 L 15.25 8 L 25 3.125 z M 14 9.625 L 24 14.625 L 24 22.59375 L 14 12.59375 L 14 9.625 z M 12 16 L 12 21.375 L 0.5625 27.09375 C 0.5495 27.10075 0.54325 27.118 0.53125 27.125 C 0.51725 27.133 0.48175 27.14725 0.46875 27.15625 C 0.43775 27.17625 0.43425 27.19775 0.40625 27.21875 C 0.37625 27.24175 0.3395 27.25525 0.3125 27.28125 C 0.2745 27.31725 0.24975 27.36425 0.21875 27.40625 C 0.19775 27.43525 0.17525 27.47 0.15625 27.5 C 0.12725 27.55 0.0825 27.60325 0.0625 27.65625 C 0.0515 27.68525 0.03925 27.721 0.03125 27.75 C 0.00725 27.835 0 27.909 0 28 L 0 42 C 0 42.379 0.2235 42.73625 0.5625 42.90625 L 12.5625 48.90625 C 12.5775 48.91325 12.57875 48.89925 12.59375 48.90625 C 12.72175 48.96225 12.862 49 13 49 C 13.138 49 13.27825 48.96325 13.40625 48.90625 C 13.42125 48.89925 13.4225 48.91325 13.4375 48.90625 L 25.03125 43.09375 L 36.59375 48.90625 C 36.69375 49.00625 36.9 49 37 49 C 37.1 49 37.30625 49.00625 37.40625 48.90625 L 42.40625 46.40625 L 36 40 L 36 46.40625 L 26 41.40625 L 26 30 L 26 28 C 26 27.909 25.99175 27.835 25.96875 27.75 C 25.96075 27.721 25.9485 27.68525 25.9375 27.65625 C 25.9175 27.60225 25.904 27.55 25.875 27.5 C 25.856 27.47 25.80325 27.43525 25.78125 27.40625 C 25.75025 27.36425 25.7255 27.31725 25.6875 27.28125 C 25.6605 27.25525 25.62375 27.24175 25.59375 27.21875 C 25.56575 27.19775 25.56125 27.17525 25.53125 27.15625 C 25.51725 27.14725 25.48275 27.133 25.46875 27.125 C 25.45575 27.118 25.4505 27.09975 25.4375 27.09375 L 14 21.375 L 14 18 L 12 16 z M 37 23.09375 L 46.8125 28 L 37 32.90625 L 31.625 30.21875 L 28.6875 27.25 L 37 23.09375 z M 13 23.125 L 22.75 28 L 13 32.875 L 3.25 28 L 13 23.125 z M 2 29.625 L 12 34.625 L 12 46.375 L 2 41.375 L 2 29.625 z M 35.84375 34.40625 L 36 34.5 L 36 34.59375 L 35.84375 34.40625 z"/>
</svg>
