<?xml version="1.0"?>
<svg xmlns="http://www.w3.org/2000/svg" viewBox="0 0 50 50" enable-background="new 0 0 50 50">
    <path style="text-indent:0;text-align:start;line-height:normal;text-transform:none;block-progression:tb;-inkscape-font-specification:Bitstream Vera Sans" d="M 13.59375 0 C 6.0604167 0 0 6.0604167 0 13.59375 C 0 18.742771 4.1690377 23.382559 4.21875 23.4375 C 4.2190463 23.437827 4.25 23.46875 4.25 23.46875 L 24.53125 48.53125 L 25.3125 49.5 L 26.09375 48.53125 L 45.9375 23.375 C 45.9375 23.375 45.99878 23.31385 46 23.3125 C 46.09777 23.204944 50 18.861685 50 13.6875 C 50 6.0616784 43.939583 0 36.40625 0 C 31.601128 0 27.40911 2.6307024 25 6.46875 C 22.59089 2.6307024 18.398872 0 13.59375 0 z M 13.59375 2 C 18.19375 2 22.255267 4.7660106 24.09375 8.71875 L 25 10.65625 L 25.90625 8.71875 C 27.744733 4.7660106 31.80625 2 36.40625 2 C 42.872917 2 48 7.1133216 48 13.6875 C 48 17.848493 44.4375 22.03125 44.4375 22.03125 L 44.4375 22.0625 L 44.40625 22.09375 L 25.28125 46.3125 L 5.78125 22.15625 L 5.75 22.15625 C 5.75 22.15625 2 17.61404 2 13.59375 C 2 7.1270833 7.1270833 2 13.59375 2 z M 7 13 L 8.1875 14.59375 L 24.1875 35.8125 L 25 36.875 L 25.8125 35.8125 L 41.8125 14.59375 L 43 13 L 41 13 L 33.40625 13 L 32.875 13 L 32.59375 13.4375 L 25 24.375 L 17.40625 13.4375 L 17.125 13 L 16.59375 13 L 9 13 L 7 13 z M 11.03125 15 L 16.09375 15 L 24.1875 26.65625 L 25 27.84375 L 25.8125 26.65625 L 33.90625 15 L 38.96875 15 L 25 33.53125 L 11.03125 15 z" overflow="visible" enable-background="accumulate" font-family="Bitstream Vera Sans"/>
</svg>
