<?xml version="1.0"?>
<svg xmlns="http://www.w3.org/2000/svg" width="50" height="50" viewBox="0 0 50 50">
    <path d="M 4 6 L 4 11 L 3.875 11.84375 C 3.84 12.05175 3 16.947 3 19.5 C 3 21.117429 3.3770966 22.407785 4.0625 23.34375 C 4.0412521 23.331497 4.0211621 23.325197 4 23.3125 L 4 48 L 46 48 L 46 23.3125 C 45.97855 23.323225 45.959039 23.3333 45.9375 23.34375 C 46.623034 22.407785 47 21.117429 47 19.5 C 47 16.944 46.161 12.05075 46.125 11.84375 L 45.96875 11 L 46 11 L 46 6 L 4 6 z M 5.6875 13 L 10 13 L 10 21.90625 C 9.3452147 22.584249 8.4207834 23 7.5 23 C 5.841 23 5 21.822 5 19.5 C 5 17.711 5.4575 14.513 5.6875 13 z M 12 13 L 17 13 L 17 21.90625 C 16.345215 22.584249 15.420783 23 14.5 23 C 13.579217 23 12.654785 22.58352 12 21.90625 L 12 13 z M 19 13 L 24 13 L 24 21.90625 C 23.345215 22.584249 22.420783 23 21.5 23 C 20.579217 23 19.654785 22.58352 19 21.90625 L 19 13 z M 26 13 L 31 13 L 31 21.90625 C 30.345215 22.584249 29.420783 23 28.5 23 C 27.579217 23 26.654785 22.58352 26 21.90625 L 26 13 z M 33 13 L 38 13 L 38 21.90625 C 37.345215 22.584249 36.420783 23 35.5 23 C 34.579217 23 33.654785 22.58352 33 21.90625 L 33 13 z M 40 13 L 44.28125 13 C 44.51925 14.51 45 17.711 45 19.5 C 45 21.822 44.159 23 42.5 23 C 41.579217 23 40.654785 22.58352 40 21.90625 L 40 13 z M 10 30 L 26 30 L 26 42 L 10 42 L 10 30 z M 31 30 L 40 30 L 40 46 L 31 46 L 31 30 z"/>
</svg>
